<?xml version="1.0" encoding="UTF-8"?>
<svg xmlns="http://www.w3.org/2000/svg" xmlns:xlink="http://www.w3.org/1999/xlink" width="100pt" height="100pt" viewBox="0 0 100 100" version="1.1">
<g id="surface8685517">
<path style=" stroke:none;fill-rule:nonzero;fill:rgb(100%,100%,100%);fill-opacity:1;" d="M 55.09375 96 C 49.460938 96 44.945312 95.382812 40.890625 94.070312 C 36.351562 92.601562 27.898438 88.882812 22.1875 80.523438 C 20.726562 78.390625 18.085938 74.125 16.804688 69.578125 C 15.617188 65.359375 15.617188 61.273438 15.617188 59.078125 C 15.617188 50.585938 18.523438 42.375 23.59375 36.46875 C 28.867188 30.335938 35.203125 27.023438 37.460938 25.960938 C 32.921875 27.039062 28.421875 28.804688 24.890625 31.007812 C 14.921875 37.210938 9.117188 46.078125 9.0625 46.171875 C 8.5625 46.945312 7.601562 47.273438 6.742188 46.984375 C 5.875 46.6875 5.3125 45.84375 5.390625 44.929688 C 5.453125 44.101562 7.1875 24.484375 22.625 12.71875 C 30.210938 6.929688 39 4 48.765625 4 C 52.398438 4 61.773438 4.5625 70.226562 9.78125 C 78.109375 14.640625 81.46875 18.742188 85.234375 25.0625 C 86.78125 27.648438 88.101562 31 88.953125 34.507812 C 90.414062 40.507812 90.609375 47.5 90.617188 47.796875 L 90.617188 57.070312 C 90.617188 58.179688 89.71875 59.070312 88.617188 59.070312 L 35.4375 59.070312 C 35.679688 61.164062 36.523438 64.648438 39.328125 67.632812 C 43.0625 71.617188 49.148438 73.640625 57.414062 73.640625 C 64.828125 73.640625 67.992188 72.640625 70.53125 71.828125 C 70.929688 71.703125 71.3125 71.585938 71.6875 71.46875 C 75.890625 70.226562 80.03125 67.414062 80.070312 67.390625 C 80.6875 66.96875 81.476562 66.929688 82.132812 67.265625 C 82.789062 67.617188 83.203125 68.296875 83.203125 69.039062 L 83.210938 87.59375 C 83.210938 88.28125 82.851562 88.929688 82.257812 89.296875 C 81.8125 89.570312 71.1875 96 55.09375 96 Z M 35.367188 39.46875 L 62.210938 39.46875 C 62.109375 37 61.484375 32.507812 58.46875 29.195312 C 55.820312 26.289062 51.804688 24.820312 46.53125 24.820312 C 44.335938 24.820312 41.976562 25.0625 39.585938 25.515625 C 40.015625 25.632812 40.40625 25.890625 40.679688 26.273438 C 41.21875 27.023438 41.179688 28.039062 40.578125 28.742188 C 40.554688 28.773438 38.21875 31.53125 36.804688 34.859375 C 36.101562 36.523438 35.648438 38.195312 35.367188 39.46875 Z M 35.367188 39.46875 "/>
</g>
</svg>
