<?xml version="1.0" encoding="UTF-8"?>
<svg xmlns="http://www.w3.org/2000/svg" xmlns:xlink="http://www.w3.org/1999/xlink" width="90pt" height="90pt" viewBox="0 0 90 90" version="1.1">
<g id="surface17968102">
<path style=" stroke:none;fill-rule:nonzero;fill:rgb(100%,100%,100%);fill-opacity:1;" d="M 45 6 C 28.875 6 14.988281 15.8125 9.066406 29.8125 C 8.625 30.804688 8.753906 31.957031 9.402344 32.824219 C 10.050781 33.695312 11.117188 34.144531 12.191406 34.007812 C 13.269531 33.867188 14.183594 33.15625 14.589844 32.148438 C 19.597656 20.316406 31.304688 12 45 12 C 53.078125 12 60.445312 14.886719 66.183594 19.691406 C 67.003906 20.382812 68.128906 20.582031 69.136719 20.214844 C 70.144531 19.847656 70.878906 18.96875 71.066406 17.914062 C 71.25 16.855469 70.859375 15.78125 70.039062 15.09375 C 63.265625 9.417969 54.511719 6 45 6 Z M 45 18 C 41.851562 18 38.816406 18.539062 36 19.535156 C 34.988281 19.894531 34.246094 20.761719 34.050781 21.816406 C 33.855469 22.871094 34.234375 23.953125 35.050781 24.648438 C 35.867188 25.34375 36.992188 25.554688 38.003906 25.195312 C 40.191406 24.421875 42.539062 24 45 24 C 56.632812 24 66 33.367188 66 45 C 66 53.851562 63.035156 74.011719 63.035156 74.011719 C 62.832031 75.089844 63.234375 76.195312 64.082031 76.890625 C 64.933594 77.585938 66.097656 77.761719 67.117188 77.347656 C 68.132812 76.929688 68.84375 75.992188 68.964844 74.902344 C 68.964844 74.902344 72 55.117188 72 45 C 72 30.125 59.875 18 45 18 Z M 76.511719 24.675781 C 75.453125 24.691406 74.484375 25.265625 73.957031 26.183594 C 73.433594 27.101562 73.429688 28.230469 73.953125 29.148438 C 76.53125 33.855469 78 39.246094 78 45 C 78 48.289062 77.515625 51.453125 76.617188 54.445312 C 76.261719 55.484375 76.503906 56.632812 77.246094 57.441406 C 77.988281 58.25 79.113281 58.589844 80.179688 58.324219 C 81.246094 58.0625 82.082031 57.234375 82.359375 56.171875 C 83.421875 52.632812 84 48.882812 84 45 C 84 38.222656 82.261719 31.828125 79.214844 26.265625 C 78.683594 25.269531 77.640625 24.65625 76.511719 24.671875 Z M 25.945312 27.210938 C 25.0625 27.257812 24.246094 27.691406 23.714844 28.394531 C 20.136719 32.972656 18 38.753906 18 45 C 18 59.109375 15.660156 68.273438 15.660156 68.273438 C 15.363281 69.324219 15.660156 70.449219 16.433594 71.21875 C 17.207031 71.988281 18.339844 72.277344 19.386719 71.972656 C 20.433594 71.667969 21.234375 70.820312 21.472656 69.757812 C 21.472656 69.757812 24 59.785156 24 45 C 24 40.117188 25.65625 35.652344 28.441406 32.085938 C 29.183594 31.164062 29.3125 29.890625 28.773438 28.839844 C 28.234375 27.785156 27.125 27.148438 25.945312 27.210938 Z M 45 30 C 36.75 30 30 36.75 30 45 C 30 66.054688 27.097656 77.0625 27.097656 77.0625 C 26.78125 78.113281 27.0625 79.257812 27.832031 80.042969 C 28.605469 80.824219 29.746094 81.121094 30.800781 80.816406 C 31.859375 80.511719 32.664062 79.652344 32.898438 78.578125 C 32.898438 78.578125 36 66.617188 36 45 C 36 39.996094 39.996094 36 45 36 C 50.003906 36 54 39.996094 54 45 C 54 48.59375 53.847656 52.34375 53.613281 55.992188 C 53.535156 57.066406 54.039062 58.101562 54.9375 58.703125 C 55.832031 59.300781 56.980469 59.375 57.945312 58.894531 C 58.910156 58.410156 59.542969 57.449219 59.601562 56.375 C 59.839844 52.628906 60 48.761719 60 45 C 60 36.75 53.25 30 45 30 Z M 8.941406 39.527344 C 7.402344 39.601562 6.171875 40.824219 6.085938 42.363281 C 6.03125 43.234375 6 44.113281 6 45 C 6 48.285156 6.410156 51.472656 7.175781 54.515625 C 7.425781 55.570312 8.222656 56.40625 9.261719 56.707031 C 10.304688 57.011719 11.425781 56.726562 12.199219 55.96875 C 12.972656 55.210938 13.277344 54.097656 12.996094 53.050781 C 12.347656 50.472656 12 47.78125 12 45 C 12 44.246094 12.027344 43.503906 12.074219 42.765625 C 12.144531 41.90625 11.84375 41.058594 11.242188 40.4375 C 10.640625 39.816406 9.804688 39.484375 8.941406 39.527344 Z M 44.953125 41.957031 C 43.296875 41.984375 41.976562 43.34375 42 45 C 42 53.15625 41.558594 59.886719 40.988281 65.191406 C 40.851562 66.269531 41.304688 67.335938 42.175781 67.980469 C 43.050781 68.625 44.203125 68.75 45.191406 68.304688 C 46.183594 67.859375 46.855469 66.917969 46.953125 65.835938 C 47.546875 60.316406 48 53.371094 48 45 C 48.011719 44.1875 47.695312 43.410156 47.121094 42.835938 C 46.546875 42.261719 45.765625 41.945312 44.953125 41.957031 Z M 55.371094 66.703125 C 53.832031 66.703125 52.539062 67.867188 52.382812 69.398438 C 51.6875 75.40625 51.035156 79.46875 51.035156 79.46875 C 50.867188 80.53125 51.273438 81.597656 52.105469 82.277344 C 52.9375 82.953125 54.070312 83.132812 55.070312 82.75 C 56.074219 82.367188 56.796875 81.480469 56.964844 80.421875 C 56.964844 80.421875 57.640625 76.214844 58.347656 70.089844 C 58.457031 69.234375 58.195312 68.371094 57.625 67.722656 C 57.054688 67.074219 56.234375 66.703125 55.371094 66.703125 Z M 42.078125 74.636719 C 40.652344 74.636719 39.421875 75.636719 39.132812 77.03125 C 38.675781 79.125 38.382812 80.046875 38.382812 80.046875 C 38.058594 81.070312 38.308594 82.1875 39.03125 82.980469 C 39.757812 83.769531 40.851562 84.113281 41.898438 83.878906 C 42.949219 83.644531 43.789062 82.867188 44.109375 81.84375 C 44.109375 81.84375 44.496094 80.585938 44.996094 78.316406 C 45.203125 77.425781 44.992188 76.488281 44.421875 75.773438 C 43.855469 75.054688 42.992188 74.636719 42.078125 74.636719 Z M 42.078125 74.636719 "/>
</g>
</svg>
